<svg xmlns="http://www.w3.org/2000/svg" xmlns:xlink="http://www.w3.org/1999/xlink" width="64" zoomAndPan="magnify" viewBox="0 0 48 48" height="64" preserveAspectRatio="xMidYMid meet" version="1.2"><defs><clipPath id="3fbb07a7c2"><path d="M 0.488281 0 L 4.128906 0 L 4.128906 4.996094 L 0.488281 4.996094 Z M 0.488281 0 "/></clipPath><clipPath id="8e500b3e3e"><path d="M 8.273438 0 L 39.863281 0 L 39.863281 20 L 8.273438 20 Z M 8.273438 0 "/></clipPath><clipPath id="fae6e0ead1"><path d="M 8.273438 27 L 39.863281 27 L 39.863281 47.019531 L 8.273438 47.019531 Z M 8.273438 27 "/></clipPath><clipPath id="92790e2afd"><path d="M 8.273438 13 L 39.863281 13 L 39.863281 34 L 8.273438 34 Z M 8.273438 13 "/></clipPath></defs><g id="b856968505"><g clip-rule="nonzero" clip-path="url(#3fbb07a7c2)"><path style=" stroke:none;fill-rule:nonzero;fill:#000000;fill-opacity:1;" d="M -1.109375 -13.464844 L -5.023438 -9.550781 C -5.175781 -9.398438 -5.253906 -9.210938 -5.253906 -8.996094 C -5.253906 -8.777344 -5.175781 -8.59375 -5.023438 -8.4375 C -4.871094 -8.285156 -4.683594 -8.210938 -4.46875 -8.210938 C -4.25 -8.210938 -4.066406 -8.285156 -3.914062 -8.4375 L -1.335938 -11.015625 L -1.335938 4.3125 C -1.335938 4.53125 -1.261719 4.714844 -1.109375 4.867188 C -0.957031 5.019531 -0.769531 5.097656 -0.554688 5.097656 C -0.339844 5.097656 -0.152344 5.019531 0 4.867188 C 0.152344 4.714844 0.226562 4.53125 0.226562 4.3125 L 0.226562 -11.015625 L 2.804688 -8.4375 C 2.957031 -8.285156 3.144531 -8.210938 3.359375 -8.210938 C 3.578125 -8.210938 3.761719 -8.285156 3.914062 -8.4375 C 4.066406 -8.59375 4.144531 -8.777344 4.144531 -8.996094 C 4.144531 -9.210938 4.066406 -9.398438 3.914062 -9.550781 L 0 -13.464844 C -0.152344 -13.617188 -0.339844 -13.691406 -0.554688 -13.691406 C -0.769531 -13.691406 -0.957031 -13.617188 -1.109375 -13.464844 Z M -1.109375 -13.464844 "/></g><g clip-rule="nonzero" clip-path="url(#8e500b3e3e)"><path style=" stroke:none;fill-rule:nonzero;fill:#004aad;fill-opacity:1;" d="M 24.011719 9.390625 C 18.84375 12.746094 13.746094 16.058594 8.359375 19.558594 C 8.359375 18.023438 8.359375 16.800781 8.359375 15.574219 C 8.359375 14.105469 8.402344 12.632812 8.351562 11.164062 C 8.320312 10.414062 8.585938 9.96875 9.207031 9.570312 C 14.105469 6.414062 18.988281 3.226562 23.953125 -0.00390625 C 24.300781 0.191406 24.683594 0.378906 25.035156 0.609375 C 29.558594 3.546875 34.0625 6.511719 38.605469 9.421875 C 39.378906 9.917969 39.722656 10.433594 39.699219 11.378906 C 39.632812 13.988281 39.675781 16.601562 39.675781 19.488281 C 34.320312 16.179688 29.300781 12.746094 24.011719 9.390625 Z M 24.011719 9.390625 "/></g><g clip-rule="nonzero" clip-path="url(#fae6e0ead1)"><path style=" stroke:none;fill-rule:nonzero;fill:#004aad;fill-opacity:1;" d="M 39.683594 47.015625 C 34.304688 43.519531 29.203125 40.203125 24.023438 36.832031 C 18.878906 40.175781 13.777344 43.492188 8.441406 46.964844 C 8.28125 45.257812 8.394531 43.769531 8.371094 42.292969 C 8.347656 40.765625 8.367188 39.242188 8.367188 37.597656 C 13.550781 34.222656 18.746094 30.839844 24.011719 27.410156 C 25.597656 28.441406 27.144531 29.445312 28.691406 30.449219 C 32.023438 32.621094 35.347656 34.8125 38.707031 36.941406 C 39.445312 37.410156 39.71875 37.929688 39.699219 38.796875 C 39.648438 41.410156 39.683594 44.023438 39.683594 47.015625 Z M 39.683594 47.015625 "/></g><g clip-rule="nonzero" clip-path="url(#92790e2afd)"><path style=" stroke:none;fill-rule:nonzero;fill:#004aad;fill-opacity:1;" d="M 23.855469 23.214844 C 18.800781 26.5 13.738281 29.789062 8.445312 33.230469 C 8.292969 31.523438 8.378906 30.039062 8.367188 28.554688 C 8.359375 27.03125 8.367188 25.503906 8.367188 23.871094 C 13.554688 20.496094 18.75 17.113281 24.019531 13.679688 C 29.246094 17.082031 34.441406 20.464844 39.632812 23.84375 C 39.632812 26.914062 39.632812 29.90625 39.632812 32.871094 C 39.5625 32.921875 39.527344 32.957031 39.484375 32.972656 C 39.433594 32.992188 39.375 33.011719 39.328125 32.996094 C 39.222656 32.964844 39.117188 32.925781 39.027344 32.867188 C 34.089844 29.671875 29.148438 26.472656 24.210938 23.277344 C 24.167969 23.25 24.105469 23.257812 23.855469 23.214844 Z M 23.855469 23.214844 "/></g></g></svg>